# xmcd
#
# Track frame offsets:
#	150
#	13773
#	33471
#	49269
#	65592
#	80865
#	100938
#	116436
#	133659
#	148107
#	163980
#	180903
#	195876
#	210849
#	225822
#	249345
#	275268
#
# Disc length: 4056 seconds
#
# Revision: 1
# Processed by: cddbd v1.5.2PL0 Copyright (c) Steve Scherf et al.
# Submitted via: audiograbber 1.83.01
#
DISCID=e10fd611
DTITLE=Moby - Go - the very best of Moby
DYEAR=1900
DGENRE=
TTITLE0=Natural Blues
TTITLE1=Go-2006
TTITLE2=Porcelain
TTITLE3=We  Are All Made Out Of Stars
TTITLE4=Dream About Me
TTITLE5=New York, New York
TTITLE6=In This World
TTITLE7=South Side
TTITLE8=Beautiful
TTITLE9=Extreme Ways
TTITLE10=Why Does My Heart Feel So Bad
TTITLE11=In My Heart
TTITLE12=Honey
TTITLE13=Lift Me Up
TTITLE14=Feeling So Real (Live In London)
TTITLE15=God Moving Over The Face Of The Waters
TTITLE16=Bodyrock (Olav Basoski's Da Hot Funk Da Freak Funk Remix)
EXTD=
EXTT0=
EXTT1=
EXTT2=
EXTT3=
EXTT4=
EXTT5=
EXTT6=
EXTT7=
EXTT8=
EXTT9=
EXTT10=
EXTT11=
EXTT12=
EXTT13=
EXTT14=
EXTT15=
EXTT16=
PLAYORDER=
